<svg width="760" height="220" viewBox="0 0 760 220" fill="none" xmlns="http://www.w3.org/2000/svg" role="img" aria-labelledby="logoTitle logoDesc">
  <title id="logoTitle">テスプラ ロゴ案C</title>
  <desc id="logoDesc">カレンダー、チェック、学習ノートをモチーフにした学生向け学習計画アプリの横長ロゴ</desc>
  <defs>
    <linearGradient id="accentGradient" x1="42" y1="24" x2="152" y2="160" gradientUnits="userSpaceOnUse">
      <stop stop-color="#FFB15A"/>
      <stop offset="1" stop-color="#F07B3F"/>
    </linearGradient>
    <filter id="softShadow" x="0" y="4" width="190" height="190" filterUnits="userSpaceOnUse" color-interpolation-filters="sRGB">
      <feDropShadow dx="0" dy="8" stdDeviation="10" flood-color="#233447" flood-opacity="0.14"/>
    </filter>
  </defs>

  <g filter="url(#softShadow)">
    <rect x="24" y="26" width="148" height="148" rx="34" fill="#FFF7EF"/>
  </g>

  <rect x="24" y="26" width="148" height="148" rx="34" stroke="#203245" stroke-width="6"/>
  <path d="M24 60C24 41.2223 39.2223 26 58 26H138C156.778 26 172 41.2223 172 60V74H24V60Z" fill="url(#accentGradient)"/>
  <path d="M70 24V48" stroke="#203245" stroke-width="8" stroke-linecap="round"/>
  <path d="M126 24V48" stroke="#203245" stroke-width="8" stroke-linecap="round"/>
  <rect x="46" y="92" width="76" height="56" rx="18" fill="#FFFFFF"/>
  <rect x="46" y="92" width="76" height="56" rx="18" stroke="#203245" stroke-width="4"/>
  <path d="M60 109H108" stroke="#D6DEE7" stroke-width="4" stroke-linecap="round"/>
  <path d="M60 123H100" stroke="#D6DEE7" stroke-width="4" stroke-linecap="round"/>
  <path d="M60 137H86" stroke="#D6DEE7" stroke-width="4" stroke-linecap="round"/>
  <path d="M60 109H92" stroke="url(#accentGradient)" stroke-width="4" stroke-linecap="round"/>
  <path d="M60 123H84" stroke="#203245" stroke-width="4" stroke-linecap="round" opacity="0.78"/>
  <circle cx="123" cy="124" r="21" fill="url(#accentGradient)" stroke="#203245" stroke-width="4"/>
  <path d="M114 124.5L121 131L134 118" stroke="#FFFFFF" stroke-width="6" stroke-linecap="round" stroke-linejoin="round"/>

  <g fill="#203245">
    <text x="208" y="103" font-size="66" font-weight="800" letter-spacing="0.06em" font-family="'Hiragino Sans','Yu Gothic','Noto Sans JP',sans-serif">テスプラ</text>
    <text x="210" y="143" font-size="24" font-weight="700" letter-spacing="0.08em" font-family="'Hiragino Sans','Yu Gothic','Noto Sans JP',sans-serif" fill="#5A6876">テスト対策プランナー</text>
  </g>

  <path d="M210 159H466" stroke="#F3A35A" stroke-width="6" stroke-linecap="round"/>
</svg>
